<svg xmlns="http://www.w3.org/2000/svg" width="42.16" height="44" viewBox="0 0 42.16 44">
  <metadata><?xpacket begin="﻿" id="W5M0MpCehiHzreSzNTczkc9d"?>
<x:xmpmeta xmlns:x="adobe:ns:meta/" x:xmptk="Adobe XMP Core 5.6-c138 79.159824, 2016/09/14-01:09:01        ">
   <rdf:RDF xmlns:rdf="http://www.w3.org/1999/02/22-rdf-syntax-ns#">
      <rdf:Description rdf:about=""/>
   </rdf:RDF>
</x:xmpmeta>
                                                                                                    
                                                                                                    
                                                                                                    
                                                                                                    
                                                                                                    
                                                                                                    
                                                                                                    
                                                                                                    
                                                                                                    
                                                                                                    
                                                                                                    
                                                                                                    
                                                                                                    
                                                                                                    
                                                                                                    
                                                                                                    
                                                                                                    
                                                                                                    
                                                                                                    
                                                                                                    
                           
<?xpacket end="w"?></metadata>
<defs>
    <style>
      .cls-1 {
        fill: #e10c7b;
        fill-rule: evenodd;
      }
    </style>
  </defs>
  <path id="icon-cool" class="cls-1" d="M1358.73,1810.91a5.472,5.472,0,0,0,1.26-3.65,5.722,5.722,0,0,0-1.17-3.17,4.956,4.956,0,0,0-1.16-5.65c-1.44-1.34-3.88-1.94-7.28-1.77a28.032,28.032,0,0,0-4.46.58h0c-0.46.08-.94,0.18-1.43,0.29-0.03-.59.07-2.05,1.14-5.34,1.26-3.92,1.19-6.92-.24-8.93a5.751,5.751,0,0,0-4.61-2.27,2.24,2.24,0,0,0-1.75.81c-1.01,1.19-.89,3.38-0.77,4.39-1.19,3.26-4.55,11.24-7.38,13.46a0.934,0.934,0,0,0-.15.13,10.033,10.033,0,0,0-1.78,2.7,3.721,3.721,0,0,0-1.79-.46h-5.53a3.8,3.8,0,0,0-3.77,3.83v14.95a3.8,3.8,0,0,0,3.77,3.83h5.53a3.7,3.7,0,0,0,2.17-.7l2.13,0.26a89.4,89.4,0,0,0,12.09.67c1.08,0.08,2.09.13,3.04,0.13a19.846,19.846,0,0,0,4.21-.39c2.78-.59,4.67-1.79,5.63-3.55a5.647,5.647,0,0,0,.62-3.52,5.95,5.95,0,0,0,2.06-4.78A6.192,6.192,0,0,0,1358.73,1810.91Zm-37.1,11.25a1.34,1.34,0,0,1-1.33-1.35v-14.96a1.338,1.338,0,0,1,1.33-1.34h5.53a1.336,1.336,0,0,1,1.32,1.34v14.95a1.338,1.338,0,0,1-1.32,1.35h-5.53v0.01Zm34.78-12.32a1.251,1.251,0,0,0-.16,1.5,3.908,3.908,0,0,1,.42,1.53,3.708,3.708,0,0,1-1.71,3.19,1.249,1.249,0,0,0-.41,1.41,3.3,3.3,0,0,1-.25,2.38c-0.61,1.1-1.96,1.89-4.01,2.33a23.426,23.426,0,0,1-6.6.21h-0.13a87.386,87.386,0,0,1-11.79-.66h-0.01l-0.91-.11a4.2,4.2,0,0,0,.08-0.81v-14.96a3.932,3.932,0,0,0-.17-1.14,7.572,7.572,0,0,1,1.68-3.15c4.07-3.28,8.05-14.33,8.23-14.81a1.171,1.171,0,0,0,.05-0.62,5.8,5.8,0,0,1,.12-2.66,3.19,3.19,0,0,1,2.56,1.24c0.92,1.3.88,3.61-.11,6.69-1.53,4.68-1.65,7.15-.45,8.23a1.971,1.971,0,0,0,1.98.36c0.55-.13,1.08-0.24,1.58-0.32,0.03-.01.08-0.02,0.11-0.03,2.79-.61,7.77-0.99,9.5.61a2.677,2.677,0,0,1,.31,3.36,1.255,1.255,0,0,0,.22,1.6,3.519,3.519,0,0,1,1.01,2.14A3.482,3.482,0,0,1,1356.41,1809.84Z" transform="translate(-1317.84 -1781)"/>
</svg>
