<svg id="Группа_1" data-name="Группа 1" xmlns="http://www.w3.org/2000/svg" width="95" height="95" viewBox="0 0 95 95">
  <metadata><?xpacket begin="﻿" id="W5M0MpCehiHzreSzNTczkc9d"?>
<x:xmpmeta xmlns:x="adobe:ns:meta/" x:xmptk="Adobe XMP Core 5.6-c138 79.159824, 2016/09/14-01:09:01        ">
   <rdf:RDF xmlns:rdf="http://www.w3.org/1999/02/22-rdf-syntax-ns#">
      <rdf:Description rdf:about=""/>
   </rdf:RDF>
</x:xmpmeta>
                                                                                                    
                                                                                                    
                                                                                                    
                                                                                                    
                                                                                                    
                                                                                                    
                                                                                                    
                                                                                                    
                                                                                                    
                                                                                                    
                                                                                                    
                                                                                                    
                                                                                                    
                                                                                                    
                                                                                                    
                                                                                                    
                                                                                                    
                                                                                                    
                                                                                                    
                                                                                                    
                           
<?xpacket end="w"?></metadata>
<defs>
    <style>
      .cls-1 {
        fill: #e10c7b;
      }

      .cls-2 {
        fill: #fff;
        fill-rule: evenodd;
      }
    </style>
  </defs>
  <circle id="circle" class="cls-1" cx="47.5" cy="47.5" r="47.5"/>
  <path id="icon" class="cls-2" d="M664.977,1272.2l1.31,3.51a0.341,0.341,0,0,0,.638,0l1.31-3.51a10.426,10.426,0,0,1,6.2-6.13l3.553-1.29a0.345,0.345,0,0,0,.222-0.32,0.332,0.332,0,0,0-.222-0.31l-3.553-1.3a10.384,10.384,0,0,1-6.2-6.12l-1.31-3.51a0.341,0.341,0,0,0-.638,0l-1.31,3.51a10.379,10.379,0,0,1-6.2,6.12l-3.552,1.3a0.332,0.332,0,0,0-.223.31,0.344,0.344,0,0,0,.223.32l3.552,1.29A10.421,10.421,0,0,1,664.977,1272.2Zm28.8,14.82-3.552-1.3a10.405,10.405,0,0,1-6.2-6.12l-1.31-3.51a0.341,0.341,0,0,0-.638,0l-1.31,3.51a10.41,10.41,0,0,1-6.2,6.12l-3.553,1.3a0.327,0.327,0,0,0,0,.62l3.553,1.3a10.426,10.426,0,0,1,6.2,6.13l1.31,3.5a0.341,0.341,0,0,0,.638,0l1.31-3.5a10.421,10.421,0,0,1,6.2-6.13l3.552-1.3A0.327,0.327,0,0,0,693.778,1287.02Zm-20.539,12.96-2.118-.77a6.215,6.215,0,0,1-3.7-3.66l-0.781-2.09a0.2,0.2,0,0,0-.381,0l-0.781,2.09a6.215,6.215,0,0,1-3.7,3.66l-2.118.77a0.2,0.2,0,0,0-.132.19,0.2,0.2,0,0,0,.132.18l2.118,0.77a6.215,6.215,0,0,1,3.7,3.66l0.781,2.09a0.2,0.2,0,0,0,.381,0l0.781-2.09a6.215,6.215,0,0,1,3.7-3.66l2.119-.77a0.194,0.194,0,0,0,.132-0.18A0.2,0.2,0,0,0,673.239,1299.98Z" transform="translate(-627 -1232)"/>
</svg>
