<svg id="Группа_2" data-name="Группа 2" xmlns="http://www.w3.org/2000/svg" width="95" height="95" viewBox="0 0 95 95">
  <metadata><?xpacket begin="﻿" id="W5M0MpCehiHzreSzNTczkc9d"?>
<x:xmpmeta xmlns:x="adobe:ns:meta/" x:xmptk="Adobe XMP Core 5.6-c138 79.159824, 2016/09/14-01:09:01        ">
   <rdf:RDF xmlns:rdf="http://www.w3.org/1999/02/22-rdf-syntax-ns#">
      <rdf:Description rdf:about=""/>
   </rdf:RDF>
</x:xmpmeta>
                                                                                                    
                                                                                                    
                                                                                                    
                                                                                                    
                                                                                                    
                                                                                                    
                                                                                                    
                                                                                                    
                                                                                                    
                                                                                                    
                                                                                                    
                                                                                                    
                                                                                                    
                                                                                                    
                                                                                                    
                                                                                                    
                                                                                                    
                                                                                                    
                                                                                                    
                                                                                                    
                           
<?xpacket end="w"?></metadata>
<defs>
    <style>
      .cls-1 {
        fill: #e10d7b;
      }

      .cls-2 {
        fill: #fff;
        fill-rule: evenodd;
      }
    </style>
  </defs>
  <circle id="circle" class="cls-1" cx="47.5" cy="47.5" r="47.5"/>
  <path id="icon_star" class="cls-2" d="M815.882,3870.98a1.825,1.825,0,0,1,3.245,0l5.818,11.6a1.817,1.817,0,0,0,1.362.98l13.015,1.86a1.812,1.812,0,0,1,1.46,1.21,1.755,1.755,0,0,1-.458,1.82l-9.415,9.04a1.742,1.742,0,0,0-.521,1.57l2.222,12.75a1.782,1.782,0,0,1-.72,1.75,1.842,1.842,0,0,1-1.906.13l-11.64-6.02a1.85,1.85,0,0,0-1.683,0l-11.639,6.02a1.843,1.843,0,0,1-1.906-.13,1.78,1.78,0,0,1-.72-1.75l2.222-12.75a1.74,1.74,0,0,0-.521-1.57l-9.416-9.04a1.755,1.755,0,0,1-.458-1.82,1.812,1.812,0,0,1,1.461-1.21l13.015-1.86a1.818,1.818,0,0,0,1.362-.98Z" transform="translate(-770 -3844)"/>
</svg>
