<svg id="Группа_3" data-name="Группа 3" xmlns="http://www.w3.org/2000/svg" width="95" height="95" viewBox="0 0 95 95">
  <metadata><?xpacket begin="﻿" id="W5M0MpCehiHzreSzNTczkc9d"?>
<x:xmpmeta xmlns:x="adobe:ns:meta/" x:xmptk="Adobe XMP Core 5.6-c138 79.159824, 2016/09/14-01:09:01        ">
   <rdf:RDF xmlns:rdf="http://www.w3.org/1999/02/22-rdf-syntax-ns#">
      <rdf:Description rdf:about=""/>
   </rdf:RDF>
</x:xmpmeta>
                                                                                                    
                                                                                                    
                                                                                                    
                                                                                                    
                                                                                                    
                                                                                                    
                                                                                                    
                                                                                                    
                                                                                                    
                                                                                                    
                                                                                                    
                                                                                                    
                                                                                                    
                                                                                                    
                                                                                                    
                                                                                                    
                                                                                                    
                                                                                                    
                                                                                                    
                                                                                                    
                           
<?xpacket end="w"?></metadata>
<defs>
    <style>
      .cls-1 {
        fill: #e10c7b;
      }

      .cls-2 {
        fill: #fff;
        fill-rule: evenodd;
      }
    </style>
  </defs>
  <circle id="circle" class="cls-1" cx="47.5" cy="47.5" r="47.5"/>
  <path id="icon" class="cls-2" d="M1273.64,1259.71l2.72-1.66a2.242,2.242,0,1,0-2.33-3.83l-2.72,1.67A9.577,9.577,0,0,1,1273.64,1259.71Zm-9.46-6.85a10.193,10.193,0,0,1,4.43,1.05l0.75-3.09a2.266,2.266,0,0,0-1.67-2.75,2.3,2.3,0,0,0-2.76,1.69Zm8.9,14.59,3.09,0.73a2.28,2.28,0,1,0,1.08-4.43l-3.09-.73A10.225,10.225,0,0,1,1273.08,1267.45Zm-17.76-14.37,1.65,2.7a10.935,10.935,0,0,1,1.83-1.42,10.286,10.286,0,0,1,2.1-.98l-1.65-2.71A2.305,2.305,0,0,0,1255.32,1253.08Zm15.7,5.6a8.116,8.116,0,0,0-11.19-2.66,7.916,7.916,0,0,0-1.82,1.51,11.744,11.744,0,0,1,5.45,4.69,12.2,12.2,0,0,1,1.58,4.19c0.46,2.69-.73,4.87,4.33,2.69A8.151,8.151,0,0,0,1271.02,1258.68ZM1267,1272a14.832,14.832,0,0,0,3-1c0.79-.49,1,0,1,0s1.34,1.77,1,3-2.56,2.7-4,1S1267,1272,1267,1272Zm-21.02-19.85-0.48-.15-0.48.15c-0.69.22-17.02,5.55-17.02,17.55V1311h35v-41.3C1263,1257.7,1246.67,1252.37,1245.98,1252.15Zm13.34,14.45a9.749,9.749,0,0,1,.29,1.02h-0.29v-1.02Zm-0.79-.77v1.79h-2.22l-1.57-1.58,2-2.01Zm-4.18,9.31,1.83,1.84-2,2.02-1.57-1.58v-2.25C1253.2,1275.15,1253.77,1275.14,1254.35,1275.14Zm-1.74-.77v-2.23l1.57-1.58,2,2.02-1.75,1.76Zm2.98,7.17-3.38,3.4-3.37-3.4,3.37-3.4Zm-1.24,6.4-1.74-.03v-2.25l1.57-1.58,2,2.01Zm0.08,0.8,1.75,1.76-2,2.01-1.57-1.58v-2.23C1253.22,1288.72,1253.83,1288.73,1254.43,1288.74Zm-13.12,8.29,1.57-1.58h2.22v1.79l-1.79,1.81Zm1.44,2.58-1.79,1.81h-1.78v-2.24l1.57-1.58Zm0.13-4.95-1.57-1.58,2-2.02,1.8,1.81v1.79h-2.23Zm0.99-8.57,1.63-1.64,1.63,1.65-1.63,1.63Zm1.07,2.21-1.63,1.64-1.63-1.64,1.63-1.64Zm-1.07-11.32,1.63-1.64,1.63,1.64-1.63,1.64Zm3.82,9.68,1.63,1.64-1.63,1.64-1.63-1.64Zm-1.8-2.93v-1.79h2.23l1.57,1.58-2,2.01Zm0-2.59v-1.79l1.8-1.81,2,2.02-1.57,1.58h-2.23Zm2.36-4.16,1.79-1.8h1.78v2.24l-1.57,1.58Zm-0.56-.56-1.63-1.64,1.63-1.64,1.63,1.64Zm-2.19-2.2-1.63-1.64,1.63-1.64,1.63,1.64Zm-0.56.56-1.63,1.64-1.63-1.64,1.63-1.64Zm0.17,4.57v1.79h-2.23l-1.57-1.58,2-2.02Zm0,2.59v1.79l-1.8,1.8-2-2.01,1.57-1.58h2.23Zm-2.36,4.15-1.79,1.81h-1.78v-2.24l1.57-1.58Zm-1.79,2.6,1.79,1.81-2,2.01-1.57-1.58v-2.24h1.78Zm2.91,1.81,1.63-1.64,1.63,1.64-1.63,1.64Zm2.02,4.95h2.23l1.57,1.58-2,2.02-1.8-1.81v-1.79Zm0-.79v-1.79l1.8-1.81,2,2.02-1.57,1.58h-2.23Zm2.36-4.16,1.79-1.81h1.78v2.24l-1.57,1.58Zm1.79-2.6-1.79-1.81,2-2.01,1.57,1.58v2.24h-1.78Zm1.78-13.52h-1.78l-1.79-1.8,2-2.02,1.57,1.58v2.24h0Zm-4.13-2.36-1.8-1.81v-1.79h2.23l1.57,1.58Zm-1.8-4.4v-1.79l1.8-1.8,2,2.01-1.57,1.58h-2.23Zm2.36-4.15,1.79-1.81h1.78v2.24l-1.57,1.58Zm-0.56-.57-1.63-1.64,1.63-1.64,1.63,1.64Zm-0.56.57-1.63,1.64-1.63-1.64,1.63-1.64Zm-3.82-.57-1.63-1.64,1.63-1.64,1.63,1.64Zm1.8,2.93v1.79h-2.23l-1.57-1.58,2-2.01Zm0,2.59v1.79l-1.8,1.81-2-2.02,1.57-1.58h2.23Zm-2.36,4.16-1.79,1.8h-1.78v-2.24l1.57-1.58Zm-1.79,2.6,1.79,1.8-2,2.02-1.57-1.58v-2.24h1.78Zm1.2,6.36-3.37,3.4-3.38-3.4,3.38-3.4Zm-5.5,6.4-1.82-1.82c0.68-.65,1.35-1.33,1.99-2.03l1.56,1.57v2.25C1237.82,1287.92,1237.24,1287.94,1236.66,1287.94Zm1.73,0.76v2.23l-1.56,1.57c-0.64-.7-1.31-1.37-1.99-2.02l1.73-1.74C1237.18,1288.73,1237.79,1288.72,1238.39,1288.7Zm-1.56-9.71c-0.64-.71-1.31-1.38-1.99-2.03l1.82-1.83c0.58,0.01,1.16.02,1.73,0.04v2.25Zm1.56-4.62-1.82-.03-1.73-1.74c0.68-.65,1.35-1.32,1.99-2.03l1.56,1.57v2.23h0Zm-2.5.41-1.63,1.64-1.63-1.64,1.63-1.64Zm-1.61,2.74c0.68,0.65,1.36,1.33,1.99,2.03l-1.58,1.59h-2.22v-1.79Zm0.41,4.42,1.58,1.59c-0.64.7-1.31,1.37-1.99,2.03l-1.81-1.83v-1.79h2.22Zm1.2,6.36-1.63,1.64-1.63-1.64,1.63-1.64Zm-1.61,2.74c0.68,0.65,1.36,1.32,1.99,2.02l-1.58,1.6h-2.22v-1.79Zm0.41,4.41,1.58,1.6c-0.63.7-1.31,1.37-1.99,2.02l-1.81-1.83v-1.79h2.22Zm1.2,6.36-1.63,1.64-1.63-1.64,1.63-1.64Zm0.77,0.36c0.58,0,1.16.02,1.73,0.03v2.25l-1.56,1.57c-0.64-.7-1.31-1.38-1.99-2.03Zm-0.09-.8-1.73-1.74c0.68-.65,1.35-1.32,1.99-2.02l1.56,1.57v2.23C1237.79,1301.39,1237.18,1301.38,1236.57,1301.37Zm-1.16-6.31,3.38-3.4,3.37,3.4-3.37,3.39Zm3.77,7.15h1.78l1.79,1.81-2,2.01-1.57-1.58v-2.24h0Zm2.5-.4,1.63-1.64,1.63,1.64-1.63,1.64Zm2.19-2.2,1.63-1.64,1.63,1.64-1.63,1.64Zm3.82,0.56,1.63,1.64-1.63,1.64-1.63-1.64Zm2.35,2.04h1.78v2.24l-1.57,1.58-2-2.01Zm0-.79-1.79-1.81,2-2.01,1.57,1.58v2.24h-1.78Zm-1.2-6.36,3.37-3.4,3.38,3.4-3.38,3.39Zm5.34,2.54,2,2.01-1.75,1.76c-0.6.01-1.21,0.02-1.82,0.04v-2.23Zm-1.57,4.6,1.74-.03,1.83,1.85-2,2.01-1.57-1.58v-2.25Zm2.5-.39,1.63-1.64,1.63,1.64-1.63,1.64Zm1.63-2.76-2-2.02,1.57-1.58h2.22v1.79Zm-0.43-4.39-1.57-1.58,2-2.02,1.79,1.81v1.79h-2.22Zm-1.2-6.36,1.63-1.64,1.63,1.64-1.63,1.64Zm1.63-2.77-2-2.01,1.57-1.58h2.22v1.79Zm-0.43-4.39-1.57-1.58,2-2.02,1.79,1.81v1.79h-2.22Zm-1.2-6.36,1.63-1.64,1.63,1.64-1.63,1.64Zm1.63-2.76-2-2.02,1.57-1.58h2.22v1.79Zm0.75-8.74a13.313,13.313,0,0,1,.84,1.23l-1.03-1.04Zm-2.13-2.27a19.393,19.393,0,0,1,1.62,1.65l-0.24.24-1.63-1.64Zm-2.75-2.1a22.772,22.772,0,0,1,2.14,1.59l-0.28.28q-0.93,0-1.86.06v-1.93h0Zm0,2.73c0.56-.04,1.12-0.06,1.69-0.06l1.88,1.89-2,2.01-1.57-1.58v-2.26h0Zm2.98,6.38-3.38,3.4-3.37-3.4,3.37-3.39Zm-4.32-9.95,0.55,0.56v2.24h-1.78l-1.79-1.81,1.71-1.72C1250.38,1257.57,1250.82,1257.81,1251.27,1258.07Zm-5.38-2.57a34.055,34.055,0,0,1,3.33,1.46l-1.53,1.54-1.8-1.81v-1.19Zm1.24,3.56-1.63,1.64-1.63-1.64,1.63-1.64Zm-2.02-3.56v1.19l-1.8,1.81-1.53-1.54A34.055,34.055,0,0,1,1245.11,1255.5Zm-5.93,3.13,0.55-.56c0.45-.26.89-0.5,1.31-0.73l1.71,1.72-1.79,1.81h-1.78v-2.24Zm0,3.03h1.78l1.79,1.81-2,2.01-1.57-1.58v-2.24Zm2.98,6.36-3.37,3.4-3.38-3.4,3.38-3.39Zm-5.33-2.55c-0.64-.7-1.31-1.37-1.99-2.03l1.77-1.78c0.39,0.01.79,0.01,1.18,0.01h0.6v2.23Zm1.56-6.56v1.96c-0.59.01-1.19,0.01-1.78-.01l-0.37-.36A24.278,24.278,0,0,1,1238.39,1258.91Zm-2.75,2.1,0.25,0.25-1.63,1.64-0.24-.24A19.393,19.393,0,0,1,1235.64,1261.01Zm-2.13,2.27,0.19,0.19-1.03,1.04A13.313,13.313,0,0,1,1233.51,1263.28Zm-1.04,2.55,1.81-1.83c0.68,0.66,1.36,1.33,1.99,2.03l-1.58,1.59h-2.22v-1.79Zm0,2.59h2.22l1.58,1.59c-0.64.7-1.31,1.37-1.99,2.03l-1.81-1.83v-1.79h0Zm-0.79-1.82v1.02h-0.29A9.749,9.749,0,0,1,1231.68,1266.6Zm-0.52,3.1a8.971,8.971,0,0,1,.09-1.28h0.43v1.79l-0.52.52v-1.03Zm0,2.16,0.91-.92,1.63,1.64-1.63,1.64-0.91-.92v-1.44Zm0,2.56,0.36,0.36-0.36.36v-0.72Zm0,1.84,0.91-.92,1.63,1.64-1.63,1.64-0.91-.92v-1.44h0Zm0,2.57,0.52,0.52v1.79h-0.52v-2.31Zm0,3.11h0.52v1.79l-0.52.52v-2.31Zm0,3.44,0.91-.93,1.63,1.65-1.63,1.63-0.91-.92v-1.43Zm0,2.56,0.36,0.36-0.36.36v-0.72Zm0,1.84,0.91-.92,1.63,1.64-1.63,1.64-0.91-.92v-1.44h0Zm0,2.56,0.52,0.53v1.79h-0.52v-2.32Zm0,3.11h0.52v1.79l-0.52.53v-2.32Zm0,3.44,0.91-.92,1.63,1.64-1.63,1.64-0.91-.92v-1.44Zm0,2.56,0.36,0.36-0.36.36v-0.72Zm0.52,6.37h-0.52v-1.96l0.52,0.52v1.44Zm-0.52-3.09v-1.43l0.91-.92,1.63,1.64-1.63,1.64Zm1.31,3.09v-1.44l1.81-1.83c0.68,0.66,1.36,1.33,1.99,2.03l-1.23,1.24h-2.57Zm3.69,0,2.63-2.65,2.62,2.65h-5.25Zm8.95,0h-2.58l-1.22-1.23,2-2.01,1.8,1.8v1.44Zm-1.24-3.8,1.63-1.64,1.63,1.64-1.63,1.64Zm2.02,3.8v-1.44l1.8-1.8,2,2.01-1.22,1.23h-2.58Zm3.7,0,2.62-2.65,2.63,2.65h-5.25Zm8.94,0h-2.57l-1.22-1.23,2-2.01,1.79,1.8v1.44h0Zm1.31,0h-0.52v-1.44l0.52-.52v1.96Zm0-3.09-0.91.93-1.63-1.64,1.63-1.64,0.91,0.92v1.43h0Zm0-2.56-0.36-.36,0.36-.36v0.72Zm0-1.84-0.91.92-1.63-1.64,1.63-1.64,0.91,0.92v1.44h0Zm0-2.56-0.52-.52v-1.8h0.52v2.32Zm0-3.11h-0.52v-1.79l0.52-.53v2.32Zm0-3.44-0.91.92-1.63-1.64,1.63-1.64,0.91,0.92v1.44h0Zm0-2.56-0.36-.36,0.36-.36v0.72Zm0-1.85-0.91.92-1.63-1.64,1.63-1.64,0.91,0.93v1.43h0Zm0-2.56-0.52-.52v-1.79h0.52v2.31Zm0-3.11h-0.52v-1.79l0.52-.53v2.32Zm0-3.44-0.91.92-1.63-1.64,1.63-1.64,0.91,0.92v1.44h0Zm0-2.56-0.36-.36,0.36-.36v0.72Zm0-1.84-0.91.92-1.63-1.64,1.63-1.64,0.91,0.92v1.44h0Zm0-2.56-0.52-.53v-1.79h0.43a8.971,8.971,0,0,1,.09,1.28v1.04ZM1244,1254h3v57h-3v-57Z" transform="translate(-1199 -1232)"/>
</svg>
