<svg xmlns="http://www.w3.org/2000/svg" width="35" height="33.97" viewBox="0 0 35 33.97">
  <metadata><?xpacket begin="﻿" id="W5M0MpCehiHzreSzNTczkc9d"?>
<x:xmpmeta xmlns:x="adobe:ns:meta/" x:xmptk="Adobe XMP Core 5.6-c138 79.159824, 2016/09/14-01:09:01        ">
   <rdf:RDF xmlns:rdf="http://www.w3.org/1999/02/22-rdf-syntax-ns#">
      <rdf:Description rdf:about=""/>
   </rdf:RDF>
</x:xmpmeta>
                                                                                                    
                                                                                                    
                                                                                                    
                                                                                                    
                                                                                                    
                                                                                                    
                                                                                                    
                                                                                                    
                                                                                                    
                                                                                                    
                                                                                                    
                                                                                                    
                                                                                                    
                                                                                                    
                                                                                                    
                                                                                                    
                                                                                                    
                                                                                                    
                                                                                                    
                                                                                                    
                           
<?xpacket end="w"?></metadata>
<defs>
    <style>
      .cls-1 {
        fill: #484f51;
        fill-rule: evenodd;
      }
    </style>
  </defs>
  <path id="icon_purse" class="cls-1" d="M1028.18,6999.47l13.95-3.85-0.74-1.51a1.944,1.944,0,0,0-2.63-.9l-12.49,6.26h1.91Zm18.28-3.74a1.911,1.911,0,0,0-.52.07l-3.27.91-10.01,2.76h16.31l-0.61-2.27A1.97,1.97,0,0,0,1046.46,6995.73Zm4.56,5.13h-29.05a1.953,1.953,0,0,0-1.54.75,2.032,2.032,0,0,0-.36.72,2.247,2.247,0,0,0-.07.52v22.16a1.978,1.978,0,0,0,1.97,1.99h29.04a1.978,1.978,0,0,0,1.97-1.99v-5.55h-11.66a3.355,3.355,0,0,1-3.34-3.38v-4.42a3.413,3.413,0,0,1,.94-2.36,3.3,3.3,0,0,1,2-.99,2.561,2.561,0,0,1,.39-0.03h11.67v-5.43A1.976,1.976,0,0,0,1051.02,7000.86Zm3.34,9.32a2.008,2.008,0,0,0-.69-0.41,1.911,1.911,0,0,0-.64-0.11h-11.71a1.978,1.978,0,0,0-1.97,1.99v4.43a1.978,1.978,0,0,0,1.97,1.99h11.71a1.911,1.911,0,0,0,.64-0.11,1.971,1.971,0,0,0,1.33-1.88v-4.43A2.006,2.006,0,0,0,1054.36,7010.18Zm-8.94,4.08a0.984,0.984,0,0,1-.98.99h-0.65a0.986,0.986,0,0,1-.99-0.99v-0.66a0.986,0.986,0,0,1,.38-0.78,1,1,0,0,1,.61-0.21h0.65a0.984,0.984,0,0,1,.98.99v0.66h0Z" transform="translate(-1020 -6993.03)"/>
</svg>
