<svg id="Группа_1" data-name="Группа 1" xmlns="http://www.w3.org/2000/svg" width="95" height="95" viewBox="0 0 95 95">
  <metadata><?xpacket begin="﻿" id="W5M0MpCehiHzreSzNTczkc9d"?>
<x:xmpmeta xmlns:x="adobe:ns:meta/" x:xmptk="Adobe XMP Core 5.6-c138 79.159824, 2016/09/14-01:09:01        ">
   <rdf:RDF xmlns:rdf="http://www.w3.org/1999/02/22-rdf-syntax-ns#">
      <rdf:Description rdf:about=""/>
   </rdf:RDF>
</x:xmpmeta>
                                                                                                    
                                                                                                    
                                                                                                    
                                                                                                    
                                                                                                    
                                                                                                    
                                                                                                    
                                                                                                    
                                                                                                    
                                                                                                    
                                                                                                    
                                                                                                    
                                                                                                    
                                                                                                    
                                                                                                    
                                                                                                    
                                                                                                    
                                                                                                    
                                                                                                    
                                                                                                    
                           
<?xpacket end="w"?></metadata>
<defs>
    <style>
      .cls-1 {
        fill: #e10d7b;
      }

      .cls-2 {
        fill: #fff;
        fill-rule: evenodd;
      }
    </style>
  </defs>
  <circle id="circle" class="cls-1" cx="47.5" cy="47.5" r="47.5"/>
  <path id="icon_calendar" class="cls-2" d="M519.74,3889.43l0.716,3.29,3.551-1.72h0.054v14.96h4.245V3887.1h-3.64Zm31.63-18.57v2.3a4.226,4.226,0,0,1-4.168,4.24H546.99a4.243,4.243,0,0,1-4.188-4.24v-2.6h-4.558v2.6a4.244,4.244,0,0,1-4.188,4.24h-0.21a4.227,4.227,0,0,1-4.171-4.24v-2.6h-4.637v2.6a4.192,4.192,0,0,1-4.127,4.24H520.7a4.211,4.211,0,0,1-4.151-4.24v-2.26a6.689,6.689,0,0,0-4.559,6.4v29.98a6.669,6.669,0,0,0,6.649,6.72h30.725a6.662,6.662,0,0,0,6.641-6.72V3877.3A6.754,6.754,0,0,0,551.37,3870.86Zm1.336,35.8a3.87,3.87,0,0,1-3.841,3.91H519.14a3.876,3.876,0,0,1-3.847-3.91v-21.3a2.609,2.609,0,0,1,2.617-2.63H550.1a2.6,2.6,0,0,1,2.61,2.63v21.3h0Zm-32-31.33h0.211a2.126,2.126,0,0,0,1.641-.75,2.167,2.167,0,0,0,.52-1.42h0v-2.98h0a2.223,2.223,0,0,0-.62-1.55s0,0-.007-0.01a0.053,0.053,0,0,0-.006.01,2.155,2.155,0,0,0-1.529-.62H520.7a2.153,2.153,0,0,0-1.53.62h-0.006a0.015,0.015,0,0,0-.016.01,2.184,2.184,0,0,0-.633,1.54h0v2.98h0a2.177,2.177,0,0,0,.532,1.42A2.152,2.152,0,0,0,520.7,3875.33Zm11.9-.35a0.016,0.016,0,0,1,.017.01c0.006,0,.018-0.01.023-0.01a2.145,2.145,0,0,0,1.2.35h0.211a2.1,2.1,0,0,0,1.028-.25,0.07,0.07,0,0,0,.008.01c0.007-.01,0-0.01.006-0.01a2.187,2.187,0,0,0,1.1-1.92v-2.98a2.209,2.209,0,0,0-.847-1.76s0,0,0-.01l0,0.02a2.147,2.147,0,0,0-1.3-.42h-0.211a2.149,2.149,0,0,0-1.459.55h0a0.031,0.031,0,0,0-.027.01,2.2,2.2,0,0,0-.717,1.61v2.98A2.224,2.224,0,0,0,532.606,3874.98Zm14.385,0.35H547.2a2.2,2.2,0,0,0,2.206-2.17h0v-2.98h0a2.217,2.217,0,0,0-1.144-1.93,0.145,0.145,0,0,1-.018-0.01c-0.054-.03-0.112-0.05-0.168-0.08a0.264,0.264,0,0,1-.027-0.01,0.078,0.078,0,0,1-.041-0.02,0.146,0.146,0,0,1-.061-0.02c-0.01,0-.02-0.01-0.031-0.01s-0.047,0-.069-0.01a2.292,2.292,0,0,0-.647-0.08h-0.211a1.649,1.649,0,0,0-.315.01,2.164,2.164,0,0,0-1.829,2.16v2.98A2.133,2.133,0,0,0,546.991,3875.33ZM539.5,3887c4.142,0,7.5,4.25,7.5,9.5s-3.358,9.5-7.5,9.5-7.5-4.25-7.5-9.5S535.358,3887,539.5,3887Zm0,4c1.933,0,3.5,2.46,3.5,5.5s-1.567,5.5-3.5,5.5-3.5-2.46-3.5-5.5S537.567,3891,539.5,3891Z" transform="translate(-485 -3844)"/>
</svg>
