<svg id="Группа_2" data-name="Группа 2" xmlns="http://www.w3.org/2000/svg" width="95" height="95" viewBox="0 0 95 95">
  <metadata><?xpacket begin="﻿" id="W5M0MpCehiHzreSzNTczkc9d"?>
<x:xmpmeta xmlns:x="adobe:ns:meta/" x:xmptk="Adobe XMP Core 5.6-c138 79.159824, 2016/09/14-01:09:01        ">
   <rdf:RDF xmlns:rdf="http://www.w3.org/1999/02/22-rdf-syntax-ns#">
      <rdf:Description rdf:about=""/>
   </rdf:RDF>
</x:xmpmeta>
                                                                                                    
                                                                                                    
                                                                                                    
                                                                                                    
                                                                                                    
                                                                                                    
                                                                                                    
                                                                                                    
                                                                                                    
                                                                                                    
                                                                                                    
                                                                                                    
                                                                                                    
                                                                                                    
                                                                                                    
                                                                                                    
                                                                                                    
                                                                                                    
                                                                                                    
                                                                                                    
                           
<?xpacket end="w"?></metadata>
<defs>
    <style>
      .cls-1 {
        fill: #e10c7b;
      }

      .cls-2 {
        fill: #fff;
        fill-rule: evenodd;
      }
    </style>
  </defs>
  <circle id="circle" class="cls-1" cx="47.5" cy="47.5" r="47.5"/>
  <path id="icon" class="cls-2" d="M654.568,1486.72h0.09a3.558,3.558,0,0,0,1.679-.44c2.64,2.78,3.058,3.41,4.836,8.36,0.1,0.28.192,0.56,0.3,0.84,0.077,0.21.149,0.42,0.231,0.64a1.064,1.064,0,0,0,.125.17,27.766,27.766,0,0,0,7.815,10c0.851,0.71,1.683,1.35,2.5,1.94q0.1,0.345.23,0.69a11.808,11.808,0,0,0,6.158,6.7,14.564,14.564,0,0,0,19.387-7.14,1.016,1.016,0,0,0,.017-0.75,0.9,0.9,0,0,0-.738-0.59,0.924,0.924,0,0,0-.88.35,11.42,11.42,0,0,1-7.885,4.28c-3.238.38-8.262-.22-14.663-4.67a10.037,10.037,0,0,1,.669-6.5,7.719,7.719,0,0,1,9.693-4.06,3.374,3.374,0,0,0,.191,1.56,3.459,3.459,0,0,0,3.215,2.23,3.368,3.368,0,0,0,1.214-.23,3.452,3.452,0,0,0,2-4.44,3.511,3.511,0,0,0-4.428-2.01,3.409,3.409,0,0,0-1.515,1.15,9.5,9.5,0,0,0-6.185-.14,4.9,4.9,0,0,0-1.21-3.46c-2.691-3.09-8.9-3.25-10.189-3.25h0a0.95,0.95,0,0,0-.813.5,0.935,0.935,0,0,0,.044.95,8.735,8.735,0,0,1,1.749,4.39c0.241,3.04.707,5.81,3.711,6.29a6.271,6.271,0,0,0,.712.06,11.857,11.857,0,0,0-.962,5.38c-0.272-.22-0.548-0.44-0.822-0.67a25.587,25.587,0,0,1-7.621-10.03c-0.027-.07-0.051-0.15-0.077-0.22a16.5,16.5,0,0,1-.669-10.42c2.14-.04,7.721-0.57,10.419-4.72,0.984-1.51.927-3.5,0.879-5.26-0.039-1.4-.08-2.86.487-3.45a1.873,1.873,0,0,1,1.864-.17,4.751,4.751,0,0,0,1.119.18,1.6,1.6,0,0,0,1.416-.73,3.682,3.682,0,0,0-.222-3.87,10.442,10.442,0,0,0-3.423-3.5c-3.195-2.09-6.944-2.29-8.19-.38-0.655,1.01.05,1.93,0.517,2.55,0.582,0.77.83,1.19,0.591,1.78-0.307.76-1.651,1.3-2.95,1.83-1.62.66-3.456,1.41-4.441,2.93-3.107,4.77-.319,11.11.181,12.15a16.882,16.882,0,0,0-.665,4.21,26.3,26.3,0,0,0-2.334-2.71,3.6,3.6,0,0,0,.586-1.88A3.653,3.653,0,1,0,654.568,1486.72Zm34.086,26.91a14.389,14.389,0,0,0,3.158-.73,12.69,12.69,0,0,1-12.5,1.02,9.9,9.9,0,0,1-4.3-3.81C680.827,1513.55,685.5,1513.99,688.654,1513.63Zm-2.542-17.4a1.566,1.566,0,0,1,.875-0.83,1.531,1.531,0,0,1,.554-0.1,1.576,1.576,0,0,1,.561,3.05,1.516,1.516,0,0,1-.554.1,1.579,1.579,0,0,1-1.471-1.02A1.543,1.543,0,0,1,686.112,1496.23Zm-13.9,1.99c-1.248-.19-1.853-0.9-2.142-4.59a9.349,9.349,0,0,0-1.136-3.74c2.448,0.2,5.644.89,7.084,2.54a3.132,3.132,0,0,1,.74,2.63,1.073,1.073,0,0,1-.675.69,4.793,4.793,0,0,0-2.767-3.8,0.935,0.935,0,0,0-1.188.55,0.945,0.945,0,0,0,.526,1.21c0.071,0.03,1.73.74,1.635,3.32A1.654,1.654,0,0,1,672.207,1498.22ZM662.1,1472.39c0.664-1.02,2.146-1.63,3.581-2.22,1.659-.67,3.37-1.37,3.974-2.86a3.51,3.51,0,0,0-.834-3.62,5.3,5.3,0,0,1-.354-0.5,1.947,1.947,0,0,1,1.371-.43,8.211,8.211,0,0,1,4.152,1.46,8.7,8.7,0,0,1,2.809,2.85,2.23,2.23,0,0,1,.357,1.81c-0.155-.02-0.379-0.07-0.6-0.12a5.916,5.916,0,0,0-1.474-.23,2.9,2.9,0,0,0-2.168.92c-1.112,1.15-1.058,3-1.01,4.8,0.041,1.55.09,3.16-.578,4.18-1.961,3.01-6,3.7-8.188,3.84a12.78,12.78,0,0,1,1.5-2.56,0.956,0.956,0,0,0,.167-0.44,3.475,3.475,0,0,0,4.513-1.27,3.592,3.592,0,0,0,.508-2.71,3.548,3.548,0,0,0-1.554-2.28,3.664,3.664,0,0,0-4.977,1.05,3.584,3.584,0,0,0-.508,2.71,3.543,3.543,0,0,0,.739,1.52,0.921,0.921,0,0,0-.375.28,15.319,15.319,0,0,0-1.437,2.36C661.011,1478.78,660.29,1475.18,662.1,1472.39Zm2.76,2.7a1.714,1.714,0,0,1,1.449-.79,1.77,1.77,0,0,1,.947.28,1.707,1.707,0,0,1,.744,1.09,1.727,1.727,0,0,1-.247,1.31,1.769,1.769,0,0,1-2.393.51,1.739,1.739,0,0,1-.745-1.1A1.706,1.706,0,0,1,664.861,1475.09Zm-10.166,6.17h0a1.8,1.8,0,0,1,1.256.55,1.782,1.782,0,0,1,.492,1.28,1.8,1.8,0,0,1-1.782,1.76v0.93l-0.042-.93a1.8,1.8,0,0,1-1.747-1.84A1.781,1.781,0,0,1,654.7,1481.26Z" transform="translate(-627 -1441)"/>
</svg>
