<svg xmlns="http://www.w3.org/2000/svg" width="42.125" height="44" viewBox="0 0 42.125 44">
  <metadata><?xpacket begin="﻿" id="W5M0MpCehiHzreSzNTczkc9d"?>
<x:xmpmeta xmlns:x="adobe:ns:meta/" x:xmptk="Adobe XMP Core 5.6-c138 79.159824, 2016/09/14-01:09:01        ">
   <rdf:RDF xmlns:rdf="http://www.w3.org/1999/02/22-rdf-syntax-ns#">
      <rdf:Description rdf:about=""/>
   </rdf:RDF>
</x:xmpmeta>
                                                                                                    
                                                                                                    
                                                                                                    
                                                                                                    
                                                                                                    
                                                                                                    
                                                                                                    
                                                                                                    
                                                                                                    
                                                                                                    
                                                                                                    
                                                                                                    
                                                                                                    
                                                                                                    
                                                                                                    
                                                                                                    
                                                                                                    
                                                                                                    
                                                                                                    
                                                                                                    
                           
<?xpacket end="w"?></metadata>
<defs>
    <style>
      .cls-1 {
        fill: #484f51;
        fill-rule: evenodd;
      }
    </style>
  </defs>
  <path id="icon_bad" class="cls-1" d="M600.877,1805.09a5.5,5.5,0,0,1,1.26,3.65,5.627,5.627,0,0,1-1.178,3.16,4.971,4.971,0,0,1-1.151,5.66c-1.442,1.34-3.89,1.94-7.28,1.77a27.777,27.777,0,0,1-4.461-.58h-0.009c-0.453-.08-0.933-0.18-1.423-0.29-0.036.59,0.063,2.05,1.133,5.34,1.269,3.92,1.2,6.92-.236,8.93a5.742,5.742,0,0,1-4.614,2.27,2.279,2.279,0,0,1-1.75-.81c-1.006-1.19-.888-3.38-0.761-4.39-1.2-3.26-4.551-11.24-7.389-13.46a0.942,0.942,0,0,1-.145-0.13,9.946,9.946,0,0,1-1.777-2.7,3.747,3.747,0,0,1-1.795.46h-5.53a3.8,3.8,0,0,1-3.771-3.83v-14.95a3.8,3.8,0,0,1,3.771-3.83h5.53a3.737,3.737,0,0,1,2.176.7l2.131-.26a89.266,89.266,0,0,1,12.084-.67c1.079-.08,2.094-0.13,3.037-0.13a19.88,19.88,0,0,1,4.216.39c2.774,0.59,4.669,1.79,5.63,3.55a5.7,5.7,0,0,1,.616,3.52,5.925,5.925,0,0,1,2.058,4.78A6.308,6.308,0,0,1,600.877,1805.09Zm-37.106-11.25a1.338,1.338,0,0,0-1.323,1.35v14.96a1.335,1.335,0,0,0,1.323,1.34h5.53a1.336,1.336,0,0,0,1.324-1.34V1795.2a1.338,1.338,0,0,0-1.324-1.35h-5.53v-0.01Zm34.785,12.32a1.251,1.251,0,0,1-.163-1.5,3.838,3.838,0,0,0,.417-1.53,3.7,3.7,0,0,0-1.7-3.19,1.257,1.257,0,0,1-.417-1.41,3.309,3.309,0,0,0-.245-2.38c-0.607-1.1-1.958-1.89-4.007-2.33a23.48,23.48,0,0,0-6.609-.21H585.7a87.184,87.184,0,0,0-11.785.66h-0.009l-0.916.11a3.835,3.835,0,0,1,.082.81v14.96a3.968,3.968,0,0,1-.173,1.14,7.715,7.715,0,0,0,1.687,3.15c4.07,3.28,8.05,14.33,8.222,14.81a1.181,1.181,0,0,1,.055.62,5.8,5.8,0,0,0,.117,2.66,3.215,3.215,0,0,0,2.557-1.24c0.925-1.3.889-3.61-.109-6.69-1.523-4.68-1.65-7.15-.444-8.23a1.941,1.941,0,0,1,1.976-.36c0.553,0.13,1.079.24,1.578,0.32l0.118,0.03c2.783,0.61,7.769.99,9.5-.61a2.681,2.681,0,0,0,.308-3.36,1.243,1.243,0,0,1,.217-1.6,3.506,3.506,0,0,0,1.007-2.14A3.454,3.454,0,0,0,598.556,1806.16Z" transform="translate(-560 -1791)"/>
</svg>
