<svg xmlns="http://www.w3.org/2000/svg" width="109.97" height="109.97" viewBox="0 0 109.97 109.97">
  <metadata><?xpacket begin="﻿" id="W5M0MpCehiHzreSzNTczkc9d"?>
<x:xmpmeta xmlns:x="adobe:ns:meta/" x:xmptk="Adobe XMP Core 5.6-c138 79.159824, 2016/09/14-01:09:01        ">
   <rdf:RDF xmlns:rdf="http://www.w3.org/1999/02/22-rdf-syntax-ns#">
      <rdf:Description rdf:about=""/>
   </rdf:RDF>
</x:xmpmeta>
                                                                                                    
                                                                                                    
                                                                                                    
                                                                                                    
                                                                                                    
                                                                                                    
                                                                                                    
                                                                                                    
                                                                                                    
                                                                                                    
                                                                                                    
                                                                                                    
                                                                                                    
                                                                                                    
                                                                                                    
                                                                                                    
                                                                                                    
                                                                                                    
                                                                                                    
                                                                                                    
                           
<?xpacket end="w"?></metadata>
<defs>
    <style>
      .cls-1 {
        fill: #fff;
        fill-rule: evenodd;
      }
    </style>
  </defs>
  <path id="icon" class="cls-1" d="M1250.06,6198.17a44.633,44.633,0,0,1,63.12-63.12,43.769,43.769,0,0,1,6.72,53.87,1.865,1.865,0,0,0,.26,2.23c5.69,5.7,22.77,22.78,22.77,22.78,4.53,4.53,5.61,10.87,1.59,14.89l-0.69.69c-4.02,4.02-10.36,2.94-14.89-1.59l-22.73-22.73a1.9,1.9,0,0,0-2.28-.3A43.771,43.771,0,0,1,1250.06,6198.17Zm54.88-8.24a32.979,32.979,0,1,0-46.64,0A33.014,33.014,0,0,0,1304.94,6189.93Zm-2.85-25.97a4.777,4.777,0,0,0,1.8-.36,4.6,4.6,0,0,0,2.44-6.04,29.025,29.025,0,0,0-38-15.41,4.609,4.609,0,0,0,3.59,8.49,19.807,19.807,0,0,1,25.93,10.51A4.6,4.6,0,0,0,1302.09,6163.96Z" transform="translate(-1237.03 -6122.03)"/>
</svg>
