<svg xmlns="http://www.w3.org/2000/svg" width="36.125" height="33.625" viewBox="0 0 36.125 33.625">
  <metadata><?xpacket begin="﻿" id="W5M0MpCehiHzreSzNTczkc9d"?>
<x:xmpmeta xmlns:x="adobe:ns:meta/" x:xmptk="Adobe XMP Core 5.6-c138 79.159824, 2016/09/14-01:09:01        ">
   <rdf:RDF xmlns:rdf="http://www.w3.org/1999/02/22-rdf-syntax-ns#">
      <rdf:Description rdf:about=""/>
   </rdf:RDF>
</x:xmpmeta>
                                                                                                    
                                                                                                    
                                                                                                    
                                                                                                    
                                                                                                    
                                                                                                    
                                                                                                    
                                                                                                    
                                                                                                    
                                                                                                    
                                                                                                    
                                                                                                    
                                                                                                    
                                                                                                    
                                                                                                    
                                                                                                    
                                                                                                    
                                                                                                    
                                                                                                    
                                                                                                    
                           
<?xpacket end="w"?></metadata>
<defs>
    <style>
      .cls-1 {
        fill: #e10c7b;
        fill-rule: evenodd;
      }
    </style>
  </defs>
  <path id="Forma_1" data-name="Forma 1" class="cls-1" d="M708.756,544.218a0.856,0.856,0,0,1-1.083-.2l-8.741-8.926a1.551,1.551,0,0,1,.3-2.474,15.919,15.919,0,0,0,3.969-4.147,1.117,1.117,0,0,1,2.067-.057l2.156,3.346c0.6,0.93,1.288,2.094,1.658,1.963a1.374,1.374,0,0,0,.549-0.439l17.524-22.026a1.2,1.2,0,0,1,2.17.208l4.973,9.541a2.535,2.535,0,0,1-.634,3.026l-22.518,18.1A28.622,28.622,0,0,1,708.756,544.218Z" transform="translate(-698.438 -510.688)"/>
</svg>
